<?xml version="1.0" encoding="UTF-8"?>
<svg width="82px" height="88px" viewBox="0 0 82 88" version="1.1" xmlns="http://www.w3.org/2000/svg" xmlns:xlink="http://www.w3.org/1999/xlink">
    <!-- Generator: Sketch 47.1 (45422) - http://www.bohemiancoding.com/sketch -->
    <title>gallery_icon</title>
    <desc>Created with Sketch.</desc>
    <defs></defs>
    <g id="Landing-Page" stroke="none" stroke-width="1" fill="none" fill-rule="evenodd">
        <g id="gallery_icon" fill-rule="nonzero" fill="#2174D4">
            <g id="noun_1079615_cc">
                <path d="M37.9,78.2 L30.6,69.8 L28.8,71.9 L34.3,78.1 L37.9,78.1 L37.9,78.2 Z M31.9,78.2 L27.6,73.3 L25.8,75.4 L28.2,78.2 L31.9,78.2 L31.9,78.2 Z M23.5,78.2 L25.9,78.2 L24.7,76.8 L23.5,78.2 Z M57.9,74.4 L61.2,78.1 L63.4,78.1 L59,73.1 L57.9,74.4 Z M56.2,76.5 L57.6,78.2 L59.8,78.2 L57.2,75.3 L56.2,76.5 Z M59.7,72.3 L64.8,78.1 L74.6,78.1 L64.7,66.3 L59.7,72.3 Z M65.2,28.7 C61.8,28.7 59.1,31.4 59.1,34.8 C59.1,38.2 61.8,40.9 65.2,40.9 C68.6,40.9 71.3,38.2 71.3,34.8 C71.3,31.4 68.6,28.7 65.2,28.7 Z M31.7,68.5 L40.2,78.2 L56.6,78.2 L40.1,58.6 L31.7,68.5 Z M71.5,19 L66.2,19 L59.2,5.9 C57.9,3.5 55.7,1.7 53,0.9 C50.3,0.1 47.5,0.4 45.1,1.7 L26.8,11.6 L28.2,14.2 L46.5,4.3 C50.1,2.3 54.6,3.7 56.6,7.3 L62.8,19 L50.7,19 L50.7,22 L71.6,22 C75.7,22 79,25.3 79,29.4 L79,51.7 L82,51.7 L82,29.4 C81.9,23.7 77.2,19 71.5,19 Z M78.9,77.1 C78.9,81.2 75.6,84.5 71.5,84.5 L50.6,84.5 L50.6,87.5 L71.5,87.5 C77.3,87.5 81.9,82.8 81.9,77.1 L81.9,54.8 L78.9,54.8 L78.9,77.1 Z M16.2,29.4 L16.2,51.7 L19.2,51.7 L19.2,29.4 C19.2,25.3 22.5,22 26.6,22 L47.5,22 L47.5,19 L26.6,19 C20.9,19 16.2,23.7 16.2,29.4 Z M19.2,77.1 L19.2,54.8 L16.2,54.8 L16.2,54.9 L4,35.7 C3.1,34 2.9,32 3.4,30.1 C4,28.2 5.2,26.6 7,25.7 L25.3,15.8 L23.9,13.2 L5.6,23.1 C3.2,24.4 1.4,26.6 0.6,29.3 C-0.2,32 0.1,34.8 1.4,37.2 L16.2,60.6 L16.2,77.2 C16.2,83 20.9,87.6 26.6,87.6 L47.5,87.6 L47.5,84.6 L26.6,84.6 C22.5,84.6 19.2,81.2 19.2,77.1 Z" id="Shape"></path>
            </g>
        </g>
    </g>
</svg>